<svg width="12" height="12" viewBox="0 0 12 12" fill="none" xmlns="http://www.w3.org/2000/svg">
<path fill-rule="evenodd" clip-rule="evenodd" d="M11.6569 10.2426L7.41421 6L11.6569 1.75736C12.0472 1.36704 12.0472 0.733469 11.6569 0.343146C11.2665 -0.0471771 10.633 -0.0471771 10.2426 0.343146L6 4.58579L1.75736 0.343146C1.36704 -0.0471771 0.733469 -0.0471771 0.343146 0.343146C-0.0471771 0.733469 -0.0471771 1.36704 0.343146 1.75736L4.58579 6L0.343146 10.2426C-0.0478842 10.6337 -0.0471771 11.2665 0.343146 11.6569C0.733469 12.0472 1.36633 12.0479 1.75736 11.6569L6 7.41421L10.2426 11.6569C10.6337 12.0479 11.2665 12.0472 11.6569 11.6569C12.0472 11.2665 12.0479 10.6337 11.6569 10.2426" fill="#313037"/>
</svg>
