<svg width="46" height="24" viewBox="0 0 46 24" fill="none" xmlns="http://www.w3.org/2000/svg">
<rect width="24" height="24" fill="white"/>
<path fill-rule="evenodd" clip-rule="evenodd" d="M11.0011 5.99875C11.0011 6.25875 10.9011 6.50875 10.7111 6.70875L6.41115 10.9987L44.0012 10.9987C44.5512 10.9987 45.0012 11.4487 45.0012 11.9987C45.0012 12.5487 44.5512 12.9987 44.0012 12.9987L6.41115 12.9987L10.7111 17.2887C11.1011 17.6787 11.1011 18.3187 10.7111 18.7087C10.3211 19.0987 9.68115 19.0987 9.29115 18.7087L3.29115 12.7087C3.20115 12.6187 3.13115 12.5087 3.08115 12.3887C3.06115 12.3387 3.04115 12.2987 3.04115 12.2487C2.99115 12.0887 2.99115 11.9087 3.04115 11.7487C3.04115 11.6987 3.06115 11.6587 3.08115 11.6087C3.13115 11.4887 3.20115 11.3787 3.29115 11.2887L9.29115 5.28875C9.68115 4.89875 10.3211 4.89875 10.7111 5.28875C10.9011 5.48875 11.0011 5.73875 11.0011 5.99875Z" fill="#313037"/>
</svg>
